<?xml version="1.0" encoding="UTF-8" standalone="no"?>
<!-- Created with Inkscape (http://www.inkscape.org/) -->

<svg
   xmlns:dc="http://purl.org/dc/elements/1.1/"
   xmlns:cc="http://creativecommons.org/ns#"
   xmlns:rdf="http://www.w3.org/1999/02/22-rdf-syntax-ns#"
   xmlns:svg="http://www.w3.org/2000/svg"
   xmlns="http://www.w3.org/2000/svg"
   xmlns:sodipodi="http://sodipodi.sourceforge.net/DTD/sodipodi-0.dtd"
   xmlns:inkscape="http://www.inkscape.org/namespaces/inkscape"
   width="300"
   height="195.80023"
   id="svg2991"
   version="1.1"
   inkscape:version="0.48.5 r10040"
   sodipodi:docname="New document 1">
  <defs
     id="defs2993" />
  <sodipodi:namedview
     id="base"
     pagecolor="#ffffff"
     bordercolor="#666666"
     borderopacity="1.0"
     inkscape:pageopacity="0.0"
     inkscape:pageshadow="2"
     inkscape:zoom="2.5734455"
     inkscape:cx="184.55288"
     inkscape:cy="119.36062"
     inkscape:document-units="px"
     inkscape:current-layer="layer1"
     showgrid="false"
     fit-margin-top="12.5"
     fit-margin-left="12.5"
     fit-margin-right="12.5"
     fit-margin-bottom="12.5"
     inkscape:window-width="1366"
     inkscape:window-height="715"
     inkscape:window-x="-8"
     inkscape:window-y="-8"
     inkscape:window-maximized="1" />
  <metadata
     id="metadata2996">
    <rdf:RDF>
      <cc:Work
         rdf:about="">
        <dc:format>image/svg+xml</dc:format>
        <dc:type
           rdf:resource="http://purl.org/dc/dcmitype/StillImage" />
        <dc:title></dc:title>
      </cc:Work>
    </rdf:RDF>
  </metadata>
  <g
     inkscape:label="Layer 1"
     inkscape:groupmode="layer"
     id="layer1"
     transform="translate(-442.93585,-642.28848)">
    <g
       id="g3120"
       transform="matrix(0.79917293,0,0,0.79917293,91.463848,165.80056)">
      <g
         id="g3104">
        <path
           id="path3011"
           style="fill:#ffffff;fill-opacity:1;fill-rule:evenodd;stroke:none"
           d="m 771.37373,723.03909 c -9.98076,-16.65925 -22.77175,-31.44125 -37.71813,-43.69075 12.70562,-10.894 23.71575,-23.70837 32.58288,-37.99175 1.71037,0.0504 3.42425,0.0833 5.14662,0.0833 8.04438,0 15.95513,-0.56475 23.70575,-1.63312 -0.4975,30.4005 -9.09462,58.82812 -23.71712,83.23237 z"
           inkscape:connector-curvature="0" />
        <path
           id="path3013"
           style="fill:#ffffff;fill-opacity:1;fill-rule:evenodd;stroke:none"
           d="m 627.4896,804.63534 c -26.03262,0 -50.67913,5.93438 -72.66075,16.52425 l 145.32163,0 C 678.16885,810.56972 653.52235,804.63534 627.4896,804.63534"
           inkscape:connector-curvature="0" />
        <path
           id="path3015"
           style="fill:#ffffff;fill-opacity:1;fill-rule:evenodd;stroke:none"
           d="m 627.4896,641.43984 c -61.12412,0 -114.599,32.72138 -143.88487,81.59775 29.28587,48.87638 82.76075,81.59775 143.88487,81.59775 61.12425,0 114.59912,-32.72137 143.88488,-81.59775 -29.28575,-48.87637 -82.76063,-81.59775 -143.88488,-81.59775"
           inkscape:connector-curvature="0" />
        <path
           id="path3017"
           style="fill:#ffffff;fill-opacity:1;fill-rule:evenodd;stroke:none"
           d="m 627.4896,616.2966 c -6.94313,0 -12.57162,5.62849 -12.57162,12.57162 0,6.94312 5.62849,12.57162 12.57162,12.57162 6.94312,0 12.57163,-5.6285 12.57163,-12.57162 0,-6.94313 -5.62851,-12.57162 -12.57163,-12.57162"
           inkscape:connector-curvature="0" />
      </g>
      <g
         id="g3110">
        <path
           id="path3019"
           style="fill:#000000;fill-opacity:1;fill-rule:nonzero;stroke:none"
           d="m 799.5246,634.64659 c 0.01,0.787 0.017,1.57463 0.017,2.36413 0,47.51225 -19.25788,90.52413 -50.39287,121.65912 -31.135,31.135 -74.14688,50.39288 -121.65913,50.39288 -47.51212,0 -90.524,-19.25788 -121.65912,-50.39288 -31.135,-31.135 -50.39288,-74.14687 -50.39288,-121.65912 l 8.85825,0 c 0,45.06737 18.26575,85.86462 47.79575,115.39812 29.53338,29.52988 70.33075,47.79563 115.398,47.79563 45.06738,0 85.86463,-18.26575 115.39813,-47.79563 29.52987,-29.5335 47.79562,-70.33075 47.79562,-115.39812 0,-0.371 -0.005,-0.74125 -0.008,-1.1115 2.97363,-0.34262 5.92413,-0.75825 8.84838,-1.25263"
           inkscape:connector-curvature="0" />
        <path
           id="path3021"
           style="fill:#000000;fill-opacity:1;fill-rule:nonzero;stroke:none"
           d="m 627.4896,645.86897 c -45.0655,0 -85.86488,18.26612 -115.397,47.7985 -29.53238,29.53212 -47.7985,70.3315 -47.7985,115.397 l -8.85825,0 c 0,-47.51075 19.25825,-90.52513 50.39362,-121.66013 31.135,-31.13537 74.14938,-50.39362 121.66013,-50.39362 47.51088,0 90.5245,19.25787 121.66012,50.39362 10.59813,10.598 19.81851,22.57375 27.37313,35.63325 -1.694,2.92863 -3.47162,5.80325 -5.33013,8.6195 -7.57,-14.02375 -17.1305,-26.814 -28.30612,-37.98962 -29.53238,-29.53238 -70.33138,-47.7985 -115.397,-47.7985"
           inkscape:connector-curvature="0" />
        <path
           id="path3023"
           style="fill:#000000;fill-opacity:1;fill-rule:nonzero;stroke:none"
           d="m 577.9226,816.73047 99.13363,0 c -15.63125,-4.97838 -32.28488,-7.666 -49.56663,-7.666 -17.28175,0 -33.93525,2.68762 -49.567,7.666 z m 121.20063,8.85825 -143.26763,0 -18.35038,0 c 26.18075,-16.0965 56.99763,-25.3825 89.98438,-25.3825 32.98675,0 63.80362,9.286 89.9845,25.3825 l -18.35087,0 z"
           inkscape:connector-curvature="0" />
        <path
           id="path3025"
           style="fill:#000000;fill-opacity:1;fill-rule:nonzero;stroke:none"
           d="m 627.4896,620.72572 c -2.24888,0 -4.28487,0.91125 -5.75788,2.38462 -1.47325,1.473 -2.38462,3.50888 -2.38462,5.75788 0,2.24862 0.91175,4.28487 2.38462,5.75787 1.47301,1.47325 3.509,2.38463 5.75788,2.38463 2.24863,0 4.285,-0.91162 5.75787,-2.38463 1.47301,-1.473 2.38463,-3.50925 2.38463,-5.75787 0,-2.249 -0.91125,-4.28488 -2.38463,-5.75788 -1.47287,-1.473 -3.50924,-2.38462 -5.75787,-2.38462 z m -12.021,-3.8785 c 3.076,-3.07675 7.3265,-4.97975 12.021,-4.97975 4.6935,0 8.94438,1.903 12.021,4.97975 3.07675,3.07587 4.97988,7.3265 4.97988,12.021 0,4.6935 -1.90313,8.94437 -4.97988,12.021 -3.07662,3.07662 -7.3275,4.97975 -12.021,4.97975 -4.6945,0 -8.945,-1.90313 -12.021,-4.97975 -3.07663,-3.07663 -4.97975,-7.3275 -4.97975,-12.021 0,-4.6945 1.90312,-8.94513 4.97975,-12.021"
           inkscape:connector-curvature="0" />
        <path
           id="path3027"
           style="fill:#000000;fill-opacity:1;fill-rule:nonzero;stroke:none"
           d="m 533.20085,653.53497 188.57762,0 c 2.44626,0 4.42913,1.98275 4.42913,4.42912 0,2.44625 -1.98287,4.42913 -4.42913,4.42913 l -188.57762,0 c -2.44638,0 -4.42913,-1.98288 -4.42913,-4.42913 0,-2.44637 1.98275,-4.42912 4.42913,-4.42912"
           inkscape:connector-curvature="0" />
        <path
           id="path3029"
           style="fill:#000000;fill-opacity:1;fill-rule:evenodd;stroke:none"
           d="m 536.7686,703.86759 c 0,-12.8965 -2.29575,-17.9805 -6.86063,-14.99062 -1.49487,0.979 -2.5525,2.47175 -3.20174,4.34162 -0.631,1.81663 -0.98325,4.52188 -0.98325,8.11838 0,3.5585 0,7.12912 0,10.68775 0,3.545 0,7.11637 0,10.6745 0.7775,0 1.57825,-0.0213 2.37824,-0.0259 1.28101,-0.007 2.38013,-0.21362 3.31625,-0.61612 0.91563,-0.39338 1.84288,-1.192 2.72126,-2.4665 0.88262,-1.28088 1.52462,-3.26525 1.96687,-5.88338 0.44925,-2.661 0.663,-5.94737 0.663,-9.83975 z m -5.12262,-21.1305 c 4.04475,-2.93487 7.18762,-3.62475 9.17049,-1.72137 2.89276,2.77625 4.23063,9.03012 4.23063,18.09925 0,6.71812 -0.7065,12.34662 -2.17238,16.72513 -1.41512,4.22749 -3.133,7.26974 -5.05412,9.10699 1.23487,4.8685 2.4895,9.92201 3.70488,15.08063 1.254,5.32275 2.48062,10.83762 3.72749,16.4935 0.85676,3.888 1.63175,6.829 2.37825,8.73525 0.76263,1.94675 1.71538,3.21125 2.9045,3.78925 0.0914,0.64237 0.16013,1.60612 0.18288,2.86437 0.0226,1.24613 -0.0228,2.09413 -0.13713,2.5565 -0.59462,0.501 -2.45125,-0.1045 -5.60312,-2.02962 -2.588,-1.581 -4.96413,-7.24075 -7.22613,-16.66063 -1.05387,-4.38875 -2.16112,-8.66337 -3.22475,-12.7555 -1.03999,-4.00037 -2.15824,-7.8835 -3.20137,-11.638 -0.41988,-1.51162 -0.90612,-2.54875 -1.55525,-3.10862 -0.63138,-0.54425 -1.9895,-0.88613 -4.04787,-1.06613 0,5.76738 0,11.548 0,17.31538 0,2.13237 0.10212,3.9165 0.27424,5.38275 0.17051,1.44875 0.48301,2.63125 0.938,3.545 0.45913,0.92275 0.88938,1.63562 1.32626,2.11962 0.43149,0.47875 1.12074,1.07925 2.03525,1.77238 0.25162,0.4755 0.37737,1.22062 0.38874,2.28687 0.0109,1.06538 -0.13712,1.63125 -0.38874,1.74713 -2.92713,-2.3765 -5.69663,-4.67175 -8.34701,-6.92388 -2.70037,-2.29475 -5.51162,-4.8685 -8.43874,-7.51475 -0.25151,-0.4365 -0.36563,-0.9375 -0.36563,-1.55437 0,-0.61625 0.11412,-0.9635 0.36563,-0.95038 0.89187,0.69375 1.57787,1.18213 2.03525,1.42588 0.43449,0.23137 0.89299,0.31425 1.34937,0.2055 0.45813,-0.10913 0.75612,-0.65513 0.91487,-1.58 0.16125,-0.93713 0.2515,-2.2865 0.2515,-4.03325 0,-5.8065 0,-11.6125 0,-17.419 0,-5.806 0,-11.6125 0,-17.41813 0,-1.72137 -0.0906,-3.07062 -0.2515,-4.021 -0.15912,-0.9375 -0.45749,-1.464 -0.91487,-1.56687 -0.4575,-0.10275 -0.89012,-0.0205 -1.34937,0.257 -0.43263,0.2615 -1.12038,0.80887 -2.03525,1.5795 -0.25151,0.0131 -0.36563,-0.282 -0.36563,-0.873 0,-0.591 0.11412,-1.13038 0.36563,-1.61863 0.73174,-0.74475 3.68049,-3.99687 9.07899,-8.95325 5.23675,-4.80787 8.32188,-7.14925 9.05601,-7.6815 z m 31.85649,8.00263 c 0,7.25737 0,14.5155 0,21.74737 0,7.245 0,14.50238 0,21.74738 0,4.80437 0.0464,8.74775 0.11413,11.79212 0.069,3.09538 0.35462,6.71638 0.77775,10.86738 0.42262,4.147 1.06363,7.663 1.89812,10.50725 1.90913,6.507 4.07163,10.209 6.54025,11.07325 1.78438,0.625 3.3115,0.2235 4.59676,-1.259 1.27549,-1.4715 2.28825,-3.48088 2.97275,-5.99913 0.6875,-2.52925 1.23699,-5.86987 1.64662,-10.01912 0.4135,-4.18713 0.64063,-8.067 0.732,-11.59938 0.0915,-3.545 0.13713,-7.77187 0.13713,-12.64037 0,-7.45013 0,-14.91338 0,-22.3635 0,-7.46338 0,-14.92663 0,-22.38988 0,-7.19362 -0.27463,-11.61312 -0.84613,-13.26962 -0.5715,-1.65688 -1.96687,-2.7745 -4.208,-3.42963 -0.18288,-0.57825 -0.27425,-1.59275 -0.27425,-3.07025 0,-1.47687 0.0914,-2.49162 0.27425,-3.08262 3.36187,0.25687 5.69475,0.39187 6.975,0.39825 1.075,0.005 3.01888,-0.10313 5.87725,-0.33388 0.16013,0.6035 0.25163,1.64375 0.25163,3.13375 0,1.4775 -0.0915,2.5565 -0.25163,3.21163 -0.98325,0.34725 -1.69437,0.66337 -2.104,0.95075 -0.41312,0.29012 -0.80575,0.98575 -1.21175,2.09375 -0.39412,1.07537 -0.651,2.673 -0.75475,4.76537 -0.10175,2.0565 -0.16012,4.98438 -0.16012,8.82488 0,6.96262 0,13.92487 0,20.88712 0,6.96225 0,13.9245 0,20.88675 0,8.86325 -0.297,16.67413 -0.86888,23.43013 -0.57113,6.744 -1.40562,12.45287 -2.5615,17.07162 -2.274,9.08713 -6.099,12.842 -11.36587,10.8415 -5.04738,-1.91737 -8.72213,-5.97975 -11.09125,-11.79175 -1.60963,-3.95012 -2.80913,-8.942 -3.59038,-14.9525 -0.77312,-5.94812 -1.1665,-12.99962 -1.1665,-21.1305 0,-7.92637 0,-15.8775 0,-23.80325 0,-7.93837 0,-15.88949 0,-23.82837 0,-6.56388 -0.26888,-10.56225 -0.80037,-11.99725 -0.52025,-1.40388 -1.66925,-1.82413 -3.43025,-1.24613 -0.15988,-0.44975 -0.22863,-1.31037 -0.22863,-2.62037 0,-1.2975 0.0688,-2.23513 0.22863,-2.83925 3.65912,-1.61813 6.31237,-1.75 8.00425,-1.734 2.35525,0.0219 5.35112,-0.0645 8.91887,-0.26975 0.18288,0.56487 0.286,1.54137 0.29725,2.9545 0.0114,1.38687 -0.0918,2.402 -0.29725,3.01887 -2.17275,0.16688 -3.56237,1.08288 -4.13925,2.69713 -0.58888,1.648 -0.89187,5.8965 -0.89187,12.76875 z m 50.76851,-18.16375 c 0.41174,11.57387 0.61762,21.27187 0.61762,29.04375 -0.61762,1.81137 -1.53212,2.081 -2.767,0.87375 -0.27462,-3.80263 -0.584,-7.02425 -0.89225,-9.69838 -0.30888,-2.68187 -0.73313,-5.52362 -1.2805,-8.51662 -0.54988,-3.0055 -1.23738,-5.265 -2.081,-6.82088 -0.84825,-1.56512 -1.82975,-2.33287 -2.9045,-2.33825 -1.44062,-0.007 -2.55825,1.49213 -3.40712,4.53438 -0.84301,3.02037 -1.25788,7.18087 -1.25788,12.46037 0,4.7785 0.64913,9.41138 1.94375,13.95 1.28913,4.51775 2.7,8.083 4.13938,10.71351 3.33987,6.10374 5.78937,12.19149 7.36362,18.26649 1.90137,7.33538 2.83575,15.09313 2.83575,23.13425 0,10.01975 -1.21425,18.8695 -3.7275,26.48763 -2.22025,6.7295 -4.98763,9.87662 -8.27862,9.377 -2.8835,-0.4375 -5.25863,-1.47925 -7.0895,-3.05713 -1.85063,-1.5945 -3.10988,-2.47887 -3.77325,-2.62025 -0.686,-8.08012 -1.052,-18.421 -1.052,-30.97062 1.25787,-0.88625 2.17274,-0.96375 2.76737,-0.19238 0.54887,8.29763 1.64513,15.10688 3.27013,20.41113 1.62174,5.29262 3.36287,8.05825 5.25962,8.34987 1.693,0.26 3.07063,-1.04987 4.11662,-3.841 1.05763,-2.82187 1.60088,-6.57675 1.60088,-11.27837 0,-8.25975 -1.6345,-16.55712 -4.9855,-24.779 -0.377,-0.92475 -1.32225,-2.85588 -2.74425,-5.83188 -1.41338,-2.95799 -2.70988,-5.889 -3.842,-8.88912 -1.13175,-2.99838 -2.06787,-6.31212 -2.83575,-9.90388 -1.19862,-5.60524 -1.82938,-12.83287 -1.82938,-21.7605 0,-9.12012 1.20188,-16.84525 3.56738,-23.26287 2.20788,-5.99075 4.871,-9.04787 8.004,-9.095 2.01225,-0.0297 4.02525,0.83513 6.01475,2.531 1.98962,1.69512 3.06425,2.58162 3.24713,2.723 z m 27.62575,-0.0127 c 0.41175,11.57387 0.61724,21.24637 0.61724,29.01825 -0.64024,1.8365 -1.55487,2.14512 -2.76699,0.989 -0.27463,-3.80275 -0.58388,-7.01125 -0.89188,-9.68562 -0.30887,-2.682 -0.73312,-5.52376 -1.2805,-8.51638 -0.54988,-3.00588 -1.23313,-5.26925 -2.08138,-6.834 -0.84362,-1.55625 -1.82937,-2.32513 -2.90412,-2.32513 -1.44063,0 -2.56,1.54238 -3.4075,4.65026 -0.84438,3.09612 -1.25788,7.33462 -1.25788,12.71724 0,4.86788 0.64375,9.568 1.94388,14.11688 1.284,4.494 2.69812,8.03275 4.13925,10.585 3.33812,5.91262 5.78337,11.82075 7.36362,17.77775 1.89575,7.14587 2.83575,14.75975 2.83575,22.77537 0,9.98113 -1.22912,18.98888 -3.7275,26.96238 -2.23512,7.13275 -4.9855,10.78625 -8.27862,10.85462 -2.881,0.0595 -5.25825,-0.56937 -7.11212,-1.8755 -1.82763,-1.288 -3.08726,-1.9655 -3.75063,-1.9655 -0.70862,-8.16937 -1.05163,-18.75437 -1.05163,-31.68987 1.2575,-1.1045 2.17238,-1.32275 2.767,-0.591 0.54888,8.41425 1.64838,15.222 3.27013,20.38637 1.62525,5.17538 3.36225,7.71588 5.26,7.6685 1.69225,-0.0423 3.06462,-1.54137 4.11625,-4.54712 1.052,-3.00588 1.60088,-6.88538 1.60088,-11.6125 0,-8.2985 -1.632,-16.43075 -4.98538,-24.38088 -0.37488,-0.88937 -1.32413,-2.72512 -2.74438,-5.6005 -1.41512,-2.86587 -2.71162,-5.75924 -3.842,-8.7095 -1.13312,-2.95787 -2.0685,-6.273 -2.83562,-9.89112 -1.19912,-5.65575 -1.8295,-13.03788 -1.8295,-22.2225 0,-9.39013 1.19625,-17.376 3.56738,-23.99525 2.20224,-6.148 4.87137,-9.25337 8.00437,-9.3005 2.01188,-0.0297 4.02063,0.84437 6.01437,2.54337 1.98501,1.69225 3.06426,2.56925 3.24751,2.69788 z m 22.27424,49.21125 c 1.89788,-0.20838 3.17238,-1.10975 3.84163,-2.64613 0.67962,-1.55912 1.07512,-4.7785 1.12075,-9.68575 0.16025,-0.62924 0.54925,-0.9375 1.1665,-0.98887 0.61725,-0.051 1.029,0.17962 1.18912,0.77062 -0.0688,7.32188 -0.0914,12.6015 -0.0914,15.81276 0,2.22199 0.0226,7.55287 0.0914,16.06962 -0.16012,0.61687 -0.57187,0.98962 -1.18912,1.092 -0.61725,0.10275 -1.00625,-0.14138 -1.1665,-0.7065 -0.0456,-4.3165 -0.4535,-7.2865 -1.16637,-8.966 -0.70438,-1.66 -1.98925,-2.37075 -3.79601,-2.1455 -1.486,0.185 -2.97312,0.33387 -4.45962,0.48838 0,7.15499 0,14.29687 0,21.43912 0,7.155 0,14.29687 0,21.43912 0,2.50475 0.22475,4.57513 0.66337,6.24288 0.42976,1.63312 0.98288,2.39712 1.60088,2.27375 1.82862,-0.36425 3.66025,-0.787 5.51125,-1.23338 3.843,-0.92762 6.42612,-9.4415 7.72975,-25.25425 0.9145,-0.912 1.738,-0.7965 2.46962,0.33375 -0.0684,1.81175 -0.18287,4.93376 -0.343,9.35188 -0.15975,4.40575 -0.34399,8.34913 -0.52575,11.83037 -0.184,3.51925 -0.38875,6.61575 -0.59462,9.326 -3.29313,0.78376 -5.83263,1.395 -7.59263,1.85 -4.30012,1.11188 -8.59749,2.04088 -12.87487,2.87713 -3.86363,0.75575 -6.70075,1.31 -8.4845,1.64412 -0.18287,-0.50062 -0.26363,-1.5545 -0.27463,-3.1855 -0.0112,-1.64437 0.0688,-2.77474 0.27463,-3.314 2.05825,-0.48825 3.36513,-1.71987 3.93338,-3.64812 0.55212,-1.87338 0.82312,-6.56437 0.82312,-14.00175 0,-12.61425 0,-25.2415 0,-37.856 0,-12.61387 0,-25.24113 0,-37.868 0,-7.57925 -0.271,-12.2695 -0.84612,-14.09175 -0.568,-1.79963 -1.87513,-2.82612 -3.91038,-3.05688 -0.18287,-0.61687 -0.26325,-1.68337 -0.27462,-3.25024 -0.0113,-1.54138 0.0687,-2.63301 0.27462,-3.24988 2.81263,0.11587 5.62575,0.231 8.43838,0.35962 5.3745,-0.0255 10.77162,-0.0444 16.1685,-0.0769 0.9375,-0.006 1.83437,-0.31613 2.6985,-0.74487 0.12837,-0.0634 0.21725,0.17999 0.22862,0.53937 0.0113,0.36025 0.0574,2.2095 0.13713,5.52325 0.08,3.31475 0.1605,7.10363 0.2515,11.31738 0.0915,4.22574 0.16025,7.36012 0.25162,9.4025 -0.663,1.10475 -1.44075,1.46437 -2.35525,1.05337 -0.66325,-7.0005 -1.43962,-11.98563 -2.30987,-14.93925 -0.86738,-2.94237 -2.2645,-4.41 -4.16238,-4.3675 -1.55475,0.0347 -3.11025,0.0631 -4.642,0.09 -0.61763,0.01 -1.17212,0.96162 -1.60088,2.79988 -0.43975,1.88612 -0.66337,4.00787 -0.66337,6.38437 0,5.90887 0,11.81838 0,17.714 0,5.8965 0,11.79212 0,17.6755 1.4865,-0.141 2.97362,-0.26075 4.45962,-0.42375 z m 34.80625,48.196 c 2.67451,-1.18488 4.64776,-3.91463 5.96875,-8.01525 1.28588,-3.99188 2.28688,-9.19775 2.90451,-15.64588 0.9145,-0.65512 1.69225,-0.62925 2.35512,0.0255 -0.36563,8.735 -0.84613,17.29 -1.44062,25.65213 -3.31588,1.6835 -5.5045,2.78575 -6.56326,3.3275 -4.0865,2.091 -8.18299,4.06425 -12.25774,5.81887 -1.41313,0.608 -4.20776,1.88825 -8.43838,3.68675 -0.25162,-0.39862 -0.366,-1.362 -0.366,-2.8775 0,-1.54137 0.11438,-2.62062 0.366,-3.21162 0.9145,-0.4365 1.58025,-0.8695 2.03525,-1.32313 0.45963,-0.45775 0.894,-1.24437 1.34925,-2.402 0.45887,-1.16675 0.7775,-2.83925 0.93762,-5.03537 0.15976,-2.1965 0.22851,-5.04813 0.22851,-8.59325 0,-11.7155 0,-23.44313 0,-35.1715 0,-11.71488 0,-23.4425 0,-35.15775 0,-3.481 -0.0694,-6.31988 -0.22851,-8.46538 -0.16087,-2.17025 -0.48262,-3.72362 -0.93762,-4.714 -0.45913,-1.00025 -0.89575,-1.63375 -1.32662,-1.901 -0.43826,-0.27175 -1.12038,-0.46275 -2.05788,-0.5655 -0.25162,-0.56512 -0.366,-1.5545 -0.366,-3.01887 0,-1.4645 0.11438,-2.46575 0.366,-3.05713 4.162,0.20588 6.97538,0.31313 8.46138,0.2955 0.663,-0.007 1.32662,-0.0511 2.01225,-0.11587 0.66337,-0.0628 1.60087,-0.12863 2.78999,-0.19237 1.18876,-0.0643 2.37863,-0.10288 3.52201,-0.10288 0.25162,0.53975 0.37737,1.46487 0.38875,2.80038 0.0113,1.32299 -0.1145,2.29962 -0.38875,2.90337 -0.91488,0.14138 -1.57001,0.36812 -2.01251,0.65475 -0.44962,0.29125 -0.88974,0.91387 -1.34937,1.91412 -0.45488,0.99038 -0.766,2.5165 -0.9375,4.5985 -0.17112,2.07925 -0.25163,4.843 -0.25163,8.28538 0,11.40725 0,22.82625 0,34.23362 0,11.41938 0,22.82601 0,34.23325 0,9.017 0.64101,13.22013 1.92088,12.63975 1.098,-0.49825 2.19512,-1.00637 3.31612,-1.50312 z m 31.60463,-17.89363 c 2.6765,-1.94925 4.6395,-4.4395 5.99163,-7.39887 1.27737,-2.79525 2.26424,-5.93463 2.88149,-9.51875 0.91488,-0.56513 1.71526,-0.7575 2.37863,-0.61613 -0.366,4.40575 -0.8465,8.85013 -1.46375,13.4235 -3.31625,2.96675 -5.51275,4.90425 -6.56325,5.7805 -4.09462,3.41363 -8.16275,6.67238 -12.25775,9.68525 -1.37125,1.0085 -4.208,2.9545 -8.41575,5.89613 -0.2515,-0.21825 -0.389,-0.95075 -0.389,-2.18375 0,-1.24625 0.1375,-2.15787 0.389,-2.69788 0.89188,-0.57787 1.58038,-1.11399 2.03525,-1.63137 0.43663,-0.49675 0.888,-1.27488 1.34938,-2.32475 0.45312,-1.03038 0.75475,-2.4155 0.9145,-4.1365 0.15975,-1.72088 0.25162,-3.93013 0.25162,-6.628 0,-8.95362 0,-17.90688 0,-26.86013 0,-8.95325 0,-17.90675 0,-26.86 0,-2.6585 -0.0925,-4.86812 -0.25162,-6.60262 -0.1605,-1.74613 -0.45925,-3.10675 -0.9145,-4.13613 -0.45925,-1.0385 -0.894,-1.78262 -1.34938,-2.24825 -0.43612,-0.44574 -1.12075,-1.00125 -2.03525,-1.59225 -0.2515,-0.59137 -0.389,-1.47724 -0.389,-2.65924 0,-1.16863 0.1375,-1.90101 0.389,-2.23513 4.162,2.7875 6.97788,4.73375 8.43838,5.755 0.6885,0.48087 1.35112,0.93325 2.01262,1.37413 0.68737,0.45812 1.62788,1.121 2.81275,2.00437 1.19338,0.889 2.3555,1.8365 3.522,2.78725 0.25162,0.55237 0.377,1.233 0.38875,2.1065 0.0113,0.83437 -0.13713,1.32338 -0.38875,1.51612 -0.91487,-0.60412 -1.60087,-0.96375 -2.03525,-1.10475 -0.4345,-0.14137 -0.87163,-0.0305 -1.32662,0.32101 -0.45963,0.35424 -0.7675,1.19687 -0.93763,2.50474 -0.1725,1.32513 -0.27425,3.15988 -0.27425,5.52326 0,7.84887 0,15.69724 0,23.53324 0,7.84875 0,15.6845 0,23.53288 0,6.19163 0.66588,8.84412 1.9435,8.00262 1.10025,-0.72499 2.19688,-1.51337 3.29325,-2.312"
           inkscape:connector-curvature="0" />
        <path
           id="path3031"
           style="fill:#000000;fill-opacity:1;fill-rule:nonzero;stroke:none"
           d="m 799.41585,643.65159 c -9.12937,1.45738 -18.49112,2.21738 -28.03075,2.21738 -4.3965,0 -8.75475,-0.163 -13.0705,-0.479 1.9215,-2.78938 3.75625,-5.64313 5.50025,-8.5575 2.51,0.11162 5.0325,0.17825 7.57025,0.17825 9.59062,0 18.989,-0.81713 28.1395,-2.36413 0.01,0.787 0.017,1.57463 0.017,2.36413 0,2.22375 -0.0421,4.43762 -0.12575,6.64087"
           inkscape:connector-curvature="0" />
        <path
           id="path3033"
           style="fill:#000000;fill-opacity:1;fill-rule:nonzero;stroke:none"
           d="m 774.17973,636.97534 c -7.09125,11.53913 -15.50338,22.17963 -25.03001,31.70613 -5.37762,5.37775 -11.11037,10.40075 -17.15874,15.03187 -2.34325,-1.95525 -4.74163,-3.84637 -7.19363,-5.67 6.407,-4.76612 12.454,-9.98975 18.08925,-15.625 7.78825,-7.78812 14.79162,-16.3605 20.88425,-25.58762 2.52462,0.113 5.06163,0.18 7.61425,0.18 0.93437,0 1.86375,-0.0203 2.79463,-0.0354"
           inkscape:connector-curvature="0" />
      </g>
    </g>
  </g>
</svg>
