<?xml version="1.0" encoding="UTF-8" standalone="no"?>
<!-- Created with Inkscape (http://www.inkscape.org/) -->

<svg
   width="200mm"
   height="160mm"
   viewBox="0 0 200 160"
   version="1.1"
   id="svg5"
   xml:space="preserve"
   inkscape:version="1.2.2 (732a01da63, 2022-12-09)"
   sodipodi:docname="Teekanne.svg"
   xmlns:inkscape="http://www.inkscape.org/namespaces/inkscape"
   xmlns:sodipodi="http://sodipodi.sourceforge.net/DTD/sodipodi-0.dtd"
   xmlns="http://www.w3.org/2000/svg"
   xmlns:svg="http://www.w3.org/2000/svg"><sodipodi:namedview
     id="namedview7"
     pagecolor="#ffffff"
     bordercolor="#000000"
     borderopacity="0.25"
     inkscape:showpageshadow="2"
     inkscape:pageopacity="0.0"
     inkscape:pagecheckerboard="0"
     inkscape:deskcolor="#d1d1d1"
     inkscape:document-units="mm"
     showgrid="false"
     inkscape:zoom="1.6819304"
     inkscape:cx="497.04791"
     inkscape:cy="227.71453"
     inkscape:window-width="1920"
     inkscape:window-height="1017"
     inkscape:window-x="-8"
     inkscape:window-y="-8"
     inkscape:window-maximized="1"
     inkscape:current-layer="layer1" /><defs
     id="defs2"><inkscape:path-effect
       effect="bspline"
       id="path-effect314"
       is_visible="true"
       lpeversion="1"
       weight="33.333333"
       steps="2"
       helper_size="0"
       apply_no_weight="true"
       apply_with_weight="true"
       only_selected="false" /><inkscape:path-effect
       effect="bspline"
       id="path-effect247"
       is_visible="true"
       lpeversion="1"
       weight="33.333333"
       steps="2"
       helper_size="0"
       apply_no_weight="true"
       apply_with_weight="true"
       only_selected="false" /></defs><g
     inkscape:label="Ebene 1"
     inkscape:groupmode="layer"
     id="layer1"><path
       style="fill:#000000;stroke:#000000;stroke-width:0.705203;stroke-dasharray:none"
       d="m 177.81491,81.104818 c 0,0 -2.01738,0.752642 -2.99294,0.48796 -3.79113,-1.028566 -6.15506,-4.890073 -9.07771,-7.514733 C 157.8049,66.94819 150.98354,58.602978 142.80626,51.747297 136.94822,46.836021 130.66907,42.410765 124.18725,38.358192 118.22991,34.63353 112.01408,31.297211 105.63038,28.362678 100.52187,26.014339 89.890516,22.299614 89.890516,22.299614 L 69.488737,41.656461 c 0,0 8.817512,3.095629 13.172945,4.785418 5.342799,2.072859 10.757216,4.015248 15.890068,6.563987 3.83888,1.906211 7.72117,3.855934 11.09398,6.500705 3.86528,3.030942 7.32752,6.635049 10.26693,10.570383 6.30792,8.445157 10.71696,18.170277 15.49893,27.564073 3.01402,5.920813 5.32443,12.180833 8.29984,18.121163 2.55313,5.09723 5.10772,10.21816 8.18758,15.01554 2.80798,4.37388 5.91552,8.57612 9.33999,12.48619 4.03538,4.60758 8.52889,8.81195 13.13426,12.84989 3.80924,3.33991 7.6157,6.77079 11.95762,9.38097 2.75479,1.65606 5.78885,2.82549 8.81526,3.90824 3.39256,1.21375 6.86918,2.25984 10.41827,2.88163 2.62267,0.45948 7.96419,0.61471 7.96419,0.61471"
       id="path436"
       sodipodi:nodetypes="csssssccssssssssssssc" /><path
       id="path597"
       style="fill:#000000;stroke:#333333;stroke-width:0.705203;stroke-dasharray:none"
       d="m 205.16874,0.4953568 c 0,0 -0.36296,2.3719776 -0.23146,3.5505523 0.63787,5.7170437 5.72669,10.8565779 4.89352,16.5484429 -0.18588,1.269839 -1.28736,2.235039 -2.10467,3.224506 -3.74867,4.538259 -8.78581,7.873478 -12.69928,12.270404 -3.25706,3.659412 -6.59972,7.366029 -8.91778,11.681847 -2.46664,4.592463 -3.66599,9.771203 -5.12386,14.776167 -1.43611,4.930253 -2.98594,9.88546 -3.55734,14.988726 -0.22714,2.028594 0.0607,6.123593 0.0607,6.123593 0,0 18.31768,64.027025 36.51534,91.281425 1.54893,2.31981 3.90551,3.99004 5.98558,5.84854 3.88475,3.47099 8.00806,6.66786 12.10791,9.88193 3.70419,2.90391 7.42932,5.78647 11.2813,8.49128 3.26505,2.29269 6.56314,4.55426 10.01719,6.55083 2.13497,1.23411 5.0159,1.45257 6.59794,3.34417 0.83875,1.00288 0.89342,2.47074 1.12658,3.75717 0.62974,3.4744 -0.24457,7.17086 0.7128,10.56958 0.27057,0.96047 0.67241,1.95563 1.38736,2.65174 1.20304,1.17133 2.92074,1.71691 4.52437,2.21458 2.56738,0.79676 5.29402,1.0257 7.97782,1.17904 3.24612,0.18548 6.50291,-0.14459 9.74973,-0.31732 5.98777,-0.31858 12.00134,-0.49002 17.93904,-1.32587 6.79896,-0.95709 13.49831,-2.5613 20.16292,-4.21202 10.26031,-2.54132 20.46745,-5.36069 30.47896,-8.75222 8.52198,-2.88694 16.93737,-6.13423 25.13087,-9.8524 6.93995,-3.1493 13.84888,-6.46227 20.29635,-10.52569 3.22516,-2.03262 6.50794,-4.12021 9.13035,-6.88722 1.37065,-1.44621 2.49304,-3.15372 3.33883,-4.95784 0.57686,-1.23051 1.22806,-2.55766 1.14336,-3.91403 -0.27847,-4.45954 -5.39787,-7.83235 -5.32917,-12.30003 0.0738,-4.8003 4.23241,-8.62336 6.1296,-13.03342 1.99512,-4.63769 3.87496,-9.33056 5.51808,-14.10431 1.68013,-4.88121 3.34536,-9.79367 4.42985,-14.84071 0.51862,-2.4136 0.0506,-5.05412 0.98361,-7.33968 0.78267,-1.91722 2.2504,-3.51711 3.72024,-4.97584 5.20242,-5.16313 12.03823,-8.39089 17.71088,-13.032509 4.20287,-3.439022 8.4028,-6.937384 12.06147,-10.950484 4.20219,-4.609216 7.941,-9.666208 11.24762,-14.954826 3.23515,-5.174375 6.06883,-10.633194 8.33467,-16.299455 1.85963,-4.650463 3.26253,-9.499795 4.26981,-14.405941 0.99926,-4.867301 1.46077,-9.844776 1.73778,-14.805853 0.33489,-5.997193 0.3876,-12.03172 -0.0956,-18.0187956 -0.38526,-4.7739572 -1.00289,-9.56484238 -2.22846,-14.1948636 -1.90506,-7.1970778 -4.16607,-14.4513308 -7.90467,-20.8894748 -3.54371,-6.10246 -8.29089,-11.5412 -13.48299,-16.320309 -4.80855,-4.42606 -10.22736,-8.321723 -16.09706,-11.195513 -3.70757,-1.81522 -7.78165,-2.836207 -11.81977,-3.693373 -4.2668,-0.905699 -8.64407,-1.748057 -12.99929,-1.507174 -5.18012,0.286502 -10.39852,1.445569 -15.16819,3.486677 -3.54933,1.518878 -6.85483,3.732081 -9.66971,6.374245 -3.56812,3.349178 -6.19874,7.602047 -8.83983,11.721884 -1.52876,2.384719 -2.77336,4.942623 -4.02901,7.481768 -2.08172,4.20957 -3.22193,8.915267 -5.8024,12.83894 -0.49367,0.750635 -1.01194,1.588411 -1.815,1.991216 -1.29106,0.647583 -2.8759,0.572686 -4.31265,0.424433 -2.40596,-0.24827 -4.57842,-1.580162 -6.92424,-2.169649 -2.45957,-0.618068 -4.97396,-0.992984 -7.47258,-1.426938 -2.39004,-0.415091 -4.93483,-0.231693 -7.18968,-1.126241 -0.95732,-0.379782 -1.94178,-0.913024 -2.55066,-1.743651 -3.63307,-4.956109 -2.50211,-12.195973 -5.34837,-17.642188 -0.2085,-0.399075 -0.8378,-1.060085 -0.8378,-1.060085 0,0 -11.8626,4.611654 -17.86965,6.708778 -8.20617,2.864857 -16.52775,5.388157 -24.81182,8.019318 -10.51491,3.339722 -20.99995,6.784041 -31.59526,9.859282 -6.1581,1.787369 -12.36467,3.40889 -18.57832,4.9923703 -8.73246,2.2253714 -17.52027,4.2273699 -26.28169,6.3358545 -5.00424,1.2042997 -15.01428,3.60665696 -15.01428,3.60665696 z M 418.68318,-36.710743 c 0.48338,-0.132915 0.97224,-0.236994 1.46991,-0.299983 2.60127,-0.329176 5.2356,0.340558 7.83898,0.652549 2.30306,0.276004 4.66502,0.371304 6.87448,1.077452 2.84856,0.910413 5.5542,2.327465 8.02736,4.008735 3.04108,2.067345 5.8402,4.555255 8.21304,7.364458 2.3061,2.730165 4.03024,5.918252 5.72158,9.066458 1.72682,3.214224 3.38863,6.5038986 4.49432,9.98104 1.20767,3.7976624 1.63051,7.803836 2.28956,11.7340261 0.61974,3.6957119 1.38582,7.3893109 1.56382,11.1323939 0.23242,4.887224 0.18269,9.843515 -0.6528,14.664384 -1.02992,5.942716 -3.01099,11.722663 -5.32424,17.292704 -2.13924,5.151106 -4.56672,10.269937 -7.85439,14.775665 -3.30118,4.524235 -7.65223,8.189143 -11.72179,12.03692 -1.54829,1.463895 -3.11244,2.925574 -4.82253,4.196701 -0.69304,0.515127 -1.46622,0.910601 -2.19111,1.379869 -0.31099,0.201229 -0.58864,0.463555 -0.92612,0.616284 -0.49156,0.222244 -1.02339,0.452878 -1.56193,0.420241 -0.39388,-0.02374 -0.80071,-0.183483 -1.09795,-0.443104 -0.46442,-0.405723 -0.70249,-1.028816 -0.91686,-1.607064 -0.69948,-1.887542 -0.82926,-3.941612 -1.15,-5.928851 -0.72647,-4.50116 -0.88402,-9.089424 -1.75187,-13.565446 -0.94096,-4.853501 -2.30436,-9.620802 -3.73555,-14.352952 -1.22415,-4.049838 -2.61939,-8.050705 -4.14394,-11.997241 -1.24863,-3.232259 -2.63677,-6.411865 -4.09294,-9.556076 -0.96652,-2.086867 -1.81558,-4.252144 -3.07991,-6.173221 -1.20172,-1.825978 -3.19032,-3.087903 -4.23136,-5.009991 -1.05848,-1.954307 -1.31986,-4.245464 -1.91507,-6.3868077 -1.15636,-4.1601533 -2.59956,-8.27431623 -3.21711,-12.5478154 -0.44451,-3.0756509 -0.44163,-6.2105939 -0.33705,-9.3164339 0.0763,-2.264838 0.22721,-4.546488 0.7028,-6.762142 0.33492,-1.560325 0.74905,-3.139153 1.50309,-4.545648 1.28541,-2.397661 2.97012,-4.651692 5.0352,-6.422717 1.96624,-1.686279 4.41317,-2.74161 6.77486,-3.805609 1.37208,-0.618169 2.76535,-1.280226 4.21554,-1.67871 z" /><g
       id="g2764"
       style="fill:#ff6600"><path
         style="fill:#ff6600;stroke:none;stroke-width:0.3;stroke-dasharray:none"
         d="m 69.488737,41.65646 c 0,0 -12.930002,28.712564 -16.318653,43.976472 C 47.05729,113.16752 46.273547,169.9663 46.273547,169.9663 h -6.674069 c 0,0 -0.854942,-56.72694 4.671848,-84.333368 2.947858,-14.724611 6.242053,-29.514493 14.015545,-42.362717 1.100081,-1.818243 3.296526,-4.464983 5.116786,-5.561723 1.348166,-0.812294 3.874395,-2.61434 5.423661,-2.892097 0.868777,-0.155757 2.568412,-0.716502 4.226417,-0.932635 2.477543,-0.322965 4.930701,-0.287868 4.930701,-0.287868"
         id="path2695"
         sodipodi:nodetypes="csccsssssc" /><path
         style="fill:#ff6600;stroke:none;stroke-width:0.3;stroke-dasharray:none"
         d="m 69.488737,41.65646 -0.795661,0.758609 -0.146761,1.368183 c 0,0 8.818101,2.786203 13.144027,4.412956 5.302759,1.994089 10.741886,3.77798 15.684129,6.547435 1.771134,0.992479 3.113769,2.67288 4.935579,3.568956 0.20352,0.100102 0.42717,0.166284 0.65235,0.193367 0.17803,0.02141 0.36199,0.01144 0.5373,-0.02623 0.17664,-0.03795 0.34593,-0.111571 0.50444,-0.198268 0.12669,-0.06929 0.25594,-0.145238 0.35093,-0.253998 0.10644,-0.121874 0.17241,-0.276414 0.22912,-0.427966 0.0512,-0.136728 0.0865,-0.281395 0.0975,-0.426962 0.015,-0.197436 -0.002,-0.398718 -0.0433,-0.59244 -0.0362,-0.171262 -0.17704,-0.494402 -0.17704,-0.494402 0,0 -3.8962,-2.141561 -5.90966,-3.07984 C 93.357202,50.585212 88.004419,48.514736 82.661622,46.441873 78.306207,44.752088 69.488737,41.65646 69.488737,41.65646 Z"
         id="path2760"
         sodipodi:nodetypes="cccsssssssssscssc" /></g></g></svg>
