<?xml version="1.0" encoding="UTF-8" standalone="no"?>
<!-- Created with Inkscape (http://www.inkscape.org/) -->

<svg
   xmlns:dc="http://purl.org/dc/elements/1.1/"
   xmlns:cc="http://creativecommons.org/ns#"
   xmlns:rdf="http://www.w3.org/1999/02/22-rdf-syntax-ns#"
   xmlns:svg="http://www.w3.org/2000/svg"
   xmlns="http://www.w3.org/2000/svg"
   xmlns:xlink="http://www.w3.org/1999/xlink"
   xmlns:sodipodi="http://sodipodi.sourceforge.net/DTD/sodipodi-0.dtd"
   xmlns:inkscape="http://www.inkscape.org/namespaces/inkscape"
   width="49.606499mm"
   height="67.039787mm"
   viewBox="0 0 175.77106 237.54255"
   id="svg11451"
   version="1.1"
   inkscape:version="0.91 r13725"
   sodipodi:docname="tea-pot.svg">
  <defs
     id="defs11453">
    <filter
       inkscape:collect="always"
       style="color-interpolation-filters:sRGB"
       id="filter4522"
       x="-0.040440001"
       width="1.08088"
       y="-0.32789192"
       height="1.6557838">
      <feGaussianBlur
         inkscape:collect="always"
         stdDeviation="1.2617863"
         id="feGaussianBlur4524" />
    </filter>
    <radialGradient
       inkscape:collect="always"
       xlink:href="#linearGradient4417"
       id="radialGradient4423"
       cx="-945.84015"
       cy="940.42694"
       fx="-943.21924"
       fy="939.56598"
       r="5.3671899"
       gradientTransform="matrix(1.7736814,0,0,2.0568663,273.47068,-1254.5243)"
       gradientUnits="userSpaceOnUse" />
    <linearGradient
       inkscape:collect="always"
       id="linearGradient4417">
      <stop
         style="stop-color:#8d5653;stop-opacity:1"
         offset="0"
         id="stop4419" />
      <stop
         style="stop-color:#cba8a7;stop-opacity:1"
         offset="1"
         id="stop4421" />
    </linearGradient>
    <linearGradient
       inkscape:collect="always"
       xlink:href="#linearGradient4397"
       id="linearGradient4486"
       x1="-996.19958"
       y1="976.58844"
       x2="-986.17004"
       y2="965.3559"
       gradientUnits="userSpaceOnUse"
       gradientTransform="matrix(1.7736814,0,0,1.7736814,273.47068,-988.20958)" />
    <linearGradient
       inkscape:collect="always"
       id="linearGradient4397">
      <stop
         style="stop-color:#999999;stop-opacity:1"
         offset="0"
         id="stop4399" />
      <stop
         style="stop-color:#ececec;stop-opacity:1"
         offset="1"
         id="stop4401" />
    </linearGradient>
    <radialGradient
       inkscape:collect="always"
       xlink:href="#linearGradient4397"
       id="radialGradient4494"
       cx="-898.42889"
       cy="978.02075"
       fx="-898.42889"
       fy="978.02075"
       r="17.325335"
       gradientTransform="matrix(2.4604758,0.14644502,-0.13376447,2.2474251,1019.1954,-1320.9453)"
       gradientUnits="userSpaceOnUse" />
    <radialGradient
       inkscape:collect="always"
       xlink:href="#linearGradient4397"
       id="radialGradient4403"
       cx="-939.55353"
       cy="1073.1575"
       fx="-937.79633"
       fy="1095.5005"
       r="38.44043"
       gradientTransform="matrix(1.7248175,0.35833538,-0.33181136,1.5971463,560.08434,-619.67415)"
       gradientUnits="userSpaceOnUse" />
    <filter
       inkscape:collect="always"
       style="color-interpolation-filters:sRGB"
       id="filter4452"
       x="-0.036973234"
       width="1.0739465"
       y="-0.068399101"
       height="1.1367981">
      <feGaussianBlur
         inkscape:collect="always"
         stdDeviation="0.42683876"
         id="feGaussianBlur4454" />
    </filter>
  </defs>
  <sodipodi:namedview
     id="base"
     pagecolor="#ffffff"
     bordercolor="#666666"
     borderopacity="1.0"
     inkscape:pageopacity="0.0"
     inkscape:pageshadow="2"
     inkscape:zoom="0.35"
     inkscape:cx="-919.9716"
     inkscape:cy="178.77128"
     inkscape:document-units="px"
     inkscape:current-layer="layer1"
     showgrid="false"
     fit-margin-top="0"
     fit-margin-left="0"
     fit-margin-right="0"
     fit-margin-bottom="0"
     inkscape:window-width="1366"
     inkscape:window-height="715"
     inkscape:window-x="0"
     inkscape:window-y="0"
     inkscape:window-maximized="1" />
  <metadata
     id="metadata11456">
    <rdf:RDF>
      <cc:Work
         rdf:about="">
        <dc:format>image/svg+xml</dc:format>
        <dc:type
           rdf:resource="http://purl.org/dc/dcmitype/StillImage" />
        <dc:title></dc:title>
      </cc:Work>
    </rdf:RDF>
  </metadata>
  <g
     inkscape:label="Calque 1"
     inkscape:groupmode="layer"
     id="layer1"
     transform="translate(-709.25732,-473.59093)">
    <g
       style="opacity:0.95;filter:url(#filter4218)"
       id="g6016"
       transform="matrix(0.77198863,0,0,0.77198863,1879.4593,72.32046)"
       inkscape:export-xdpi="100"
       inkscape:export-ydpi="100">
      <ellipse
         style="color:#000000;clip-rule:nonzero;display:inline;overflow:visible;visibility:visible;opacity:0.17000002;isolation:auto;mix-blend-mode:normal;color-interpolation:sRGB;color-interpolation-filters:linearRGB;solid-color:#000000;solid-opacity:1;fill:#000000;fill-opacity:1;fill-rule:evenodd;stroke:none;stroke-width:2;stroke-linecap:round;stroke-linejoin:miter;stroke-miterlimit:4;stroke-dasharray:none;stroke-dashoffset:0;stroke-opacity:1;filter:url(#filter4522);color-rendering:auto;image-rendering:auto;shape-rendering:auto;text-rendering:auto;enable-background:accumulate"
         id="path4496"
         cx="-958.25861"
         cy="1016.0438"
         rx="37.44173"
         ry="4.6178131"
         transform="matrix(1.7736814,0,0,1.7736814,273.47068,-988.20958)" />
      <path
         style="color:#000000;clip-rule:nonzero;display:inline;overflow:visible;visibility:visible;opacity:1;isolation:auto;mix-blend-mode:normal;color-interpolation:sRGB;color-interpolation-filters:linearRGB;solid-color:#000000;solid-opacity:1;fill:#cba8a7;fill-opacity:1;fill-rule:evenodd;stroke:none;stroke-width:25;stroke-linecap:round;stroke-linejoin:miter;stroke-miterlimit:4;stroke-dasharray:none;stroke-dashoffset:0;stroke-opacity:1;color-rendering:auto;image-rendering:auto;shape-rendering:auto;text-rendering:auto;enable-background:accumulate"
         d="m -1404.0375,682.2152 a 68.180622,68.180622 0 0 0 -39.5233,12.73113 48.524041,20.348792 0 0 0 39.5233,8.58781 48.524041,20.348792 0 0 0 39.5683,-8.59827 68.180622,68.180622 0 0 0 -39.5683,-12.72067 z"
         id="path4327"
         inkscape:connector-curvature="0" />
      <path
         style="color:#000000;clip-rule:nonzero;display:inline;overflow:visible;visibility:visible;opacity:1;isolation:auto;mix-blend-mode:normal;color-interpolation:sRGB;color-interpolation-filters:linearRGB;solid-color:#000000;solid-opacity:1;fill:#999999;fill-opacity:1;fill-rule:evenodd;stroke:none;stroke-width:25;stroke-linecap:round;stroke-linejoin:miter;stroke-miterlimit:4;stroke-dasharray:none;stroke-dashoffset:0;stroke-opacity:1;color-rendering:auto;image-rendering:auto;shape-rendering:auto;text-rendering:auto;enable-background:accumulate"
         d="m -1364.4674,694.93427 a 48.524041,20.348792 0 0 1 -39.5684,8.59828 48.524041,20.348792 0 0 1 -39.5233,-8.58781 68.180622,68.180622 0 0 0 -28.6595,55.44829 68.180622,68.180622 0 0 0 27.5371,54.65846 41.616745,12.617842 0 0 0 -0.9734,2.6779 41.616745,12.617842 0 0 0 41.6157,12.61673 41.616745,12.617842 0 0 0 41.6157,-12.61673 41.616745,12.617842 0 0 0 -0.9943,-2.67435 68.180622,68.180622 0 0 0 27.5614,-54.66201 68.180622,68.180622 0 0 0 -28.611,-55.45876 z"
         id="circle4331"
         inkscape:connector-curvature="0" />
      <path
         style="color:#000000;clip-rule:nonzero;display:inline;overflow:visible;visibility:visible;opacity:1;isolation:auto;mix-blend-mode:normal;color-interpolation:sRGB;color-interpolation-filters:linearRGB;solid-color:#000000;solid-opacity:1;fill:url(#radialGradient4423);fill-opacity:1;fill-rule:evenodd;stroke:none;stroke-width:25;stroke-linecap:round;stroke-linejoin:miter;stroke-miterlimit:4;stroke-dasharray:none;stroke-dashoffset:0;stroke-opacity:1;color-rendering:auto;image-rendering:auto;shape-rendering:auto;text-rendering:auto;enable-background:accumulate"
         d="m -1404.1483,668.77213 c -5.2567,-5.3e-4 -9.5186,3.97606 -9.5197,8.88224 0,1.78291 0.5817,3.52342 1.6593,4.9954 l 0,6.04169 c 5.5226,3.31696 10.7727,2.3966 15.7172,0 l 0,-6.02431 c 1.0831,-1.47747 1.6627,-3.22597 1.6628,-5.01615 0,-4.90618 -4.263,-8.88277 -9.5196,-8.88241 z"
         id="path4341"
         inkscape:connector-curvature="0"
         sodipodi:nodetypes="cccccccc" />
      <path
         style="opacity:1;fill:url(#linearGradient4486);fill-opacity:1;fill-rule:evenodd;stroke:none;stroke-width:1px;stroke-linecap:butt;stroke-linejoin:miter;stroke-opacity:1"
         d="m -1499.0057,695.27535 c 0,0 0.7757,4.20735 -3.873,5.31413 -4.6486,1.10677 -12.9493,2.87886 -12.9493,2.87886 0,0 12.174,-1.99539 21.4713,11.39714 9.2974,13.39272 11.5112,39.29361 17.9308,51.9114 6.189,12.16444 11.0354,13.78363 11.3835,13.8881 a 68.180622,68.180622 0 0 1 -7.1779,-30.27035 68.180622,68.180622 0 0 1 7.8291,-31.45855 c -0.8847,-0.0266 -1.817,-0.20468 -2.7367,-0.63746 -3.7632,-1.77102 -16.3812,-16.1609 -20.1444,-18.59598 -3.7633,-2.43491 -11.7334,-4.42729 -11.7334,-4.42729 z"
         id="path4349"
         inkscape:connector-curvature="0" />
      <path
         style="opacity:1;fill:url(#radialGradient4494);fill-opacity:1;fill-rule:evenodd;stroke:none;stroke-width:0.25;stroke-linecap:butt;stroke-linejoin:miter;stroke-opacity:1"
         d="m -1317.3835,699.26613 c -1.8839,-0.0709 -3.7724,0.0621 -5.6363,0.43651 -9.2084,1.8464 -16.3788,7.97127 -16.3788,7.97127 0,0 -4.6205,3.83133 -9.1074,3.31165 3.8105,5.37354 6.8222,11.27085 8.9411,17.50818 0.6672,-0.35438 1.1854,-0.72721 1.4931,-1.11884 2.4351,-3.09915 2.8958,-5.93775 3.1005,-11.0683 0.2371,-5.9452 12.95,-12.05323 25.6768,-7.08426 27.3486,18.85742 6.3039,47.40323 -11.9516,60.21169 -4.8178,3.29426 -15.7171,7.96915 -17.9308,2.21356 -0.061,-0.15786 -0.03,-0.0887 -0.087,-0.23555 -2.3215,7.16638 -5.8146,13.89839 -10.3373,19.92268 3.2202,-0.68446 6.6157,-3.24796 11.0856,-4.63516 6.4196,-1.99218 24.1902,-13.57325 35.1999,-22.13623 25.6582,-22.76059 17.3217,-63.20195 -14.0682,-65.2972 z"
         id="path4354"
         inkscape:connector-curvature="0"
         sodipodi:nodetypes="ccccccsccccccccc" />
      <path
         id="path4395"
         d="m -1364.4674,694.93427 a 48.524041,20.348792 0 0 1 -39.5684,8.59828 48.524041,20.348792 0 0 1 -39.5233,-8.58781 68.180622,68.180622 0 0 0 -28.6595,55.44829 68.180622,68.180622 0 0 0 27.5371,54.65846 41.616745,12.617842 0 0 0 -0.9734,2.6779 41.616745,12.617842 0 0 0 41.6157,12.61673 41.616745,12.617842 0 0 0 41.6157,-12.61673 41.616745,12.617842 0 0 0 -0.9943,-2.67435 68.180622,68.180622 0 0 0 27.5614,-54.66201 68.180622,68.180622 0 0 0 -28.611,-55.45876 z"
         style="color:#000000;clip-rule:nonzero;display:inline;overflow:visible;visibility:visible;opacity:1;isolation:auto;mix-blend-mode:normal;color-interpolation:sRGB;color-interpolation-filters:linearRGB;solid-color:#000000;solid-opacity:1;fill:url(#radialGradient4403);fill-opacity:1;fill-rule:evenodd;stroke:none;stroke-width:25;stroke-linecap:round;stroke-linejoin:miter;stroke-miterlimit:4;stroke-dasharray:none;stroke-dashoffset:0;stroke-opacity:1;color-rendering:auto;image-rendering:auto;shape-rendering:auto;text-rendering:auto;enable-background:accumulate"
         inkscape:connector-curvature="0" />
      <path
         style="color:#000000;font-style:normal;font-variant:normal;font-weight:normal;font-stretch:normal;font-size:medium;line-height:normal;font-family:sans-serif;text-indent:0;text-align:start;text-decoration:none;text-decoration-line:none;text-decoration-style:solid;text-decoration-color:#000000;letter-spacing:normal;word-spacing:normal;text-transform:none;direction:ltr;block-progression:tb;writing-mode:lr-tb;baseline-shift:baseline;text-anchor:start;white-space:normal;clip-rule:nonzero;display:inline;overflow:visible;visibility:visible;opacity:1;isolation:auto;mix-blend-mode:normal;color-interpolation:sRGB;color-interpolation-filters:linearRGB;solid-color:#000000;solid-opacity:1;fill:#ececec;fill-opacity:1;fill-rule:evenodd;stroke:none;stroke-width:1;stroke-linecap:round;stroke-linejoin:miter;stroke-miterlimit:4;stroke-dasharray:none;stroke-dashoffset:0;stroke-opacity:1;color-rendering:auto;image-rendering:auto;shape-rendering:auto;text-rendering:auto;enable-background:accumulate"
         d="m -1364.4224,693.87077 0,0.007 -0.4988,0.2946 c -8.856,5.25063 -23.5013,8.46703 -39.1146,8.47341 -15.593,-0.0177 -30.2202,-3.22136 -39.0729,-8.46312 l -0.4954,-0.29443 -0.4677,0.33257 c -18.1819,12.93368 -28.5543,33.85957 -28.5902,56.17231 0.027,21.61461 9.7498,41.93797 26.9655,54.9669 -0.4105,0.76836 -0.8377,1.54115 -0.8453,2.36254 7e-4,2.13711 1.4106,4.03424 3.6409,5.63286 2.2304,1.59844 5.3549,2.97642 9.1802,4.13623 7.6507,2.31944 18.1176,3.7343 29.6815,3.73448 11.5638,-1.8e-4 22.0307,-1.41504 29.6814,-3.73448 3.8254,-1.15981 6.9498,-2.53779 9.1802,-4.13623 2.2304,-1.59862 3.6403,-3.49575 3.6409,-5.63286 l 0,-0.0177 c -0.014,-0.81873 -0.4485,-1.58727 -0.8626,-2.35208 17.2236,-13.02485 26.9552,-33.34839 26.9863,-54.9669 -0.021,-22.30759 -10.3719,-43.23278 -28.5383,-56.17923 l -0.4711,-0.33612 z m -0.045,1.0635 c 17.9338,12.78079 29.0335,33.43673 29.0544,55.45876 -0.031,21.55275 -10.6944,41.82179 -28.0048,54.66201 -2.7768,2.16407 -4.6945,2.60784 -7.0081,3.84534 2.4521,-1.03956 4.8557,-1.83736 7.3719,-3.1976 0.3898,0.66921 0.6007,1.34712 0.6305,2.02661 0,6.96809 -18.6333,12.61655 -41.6157,12.61673 -22.9825,-1.8e-4 -41.6137,-5.64864 -41.6157,-12.61673 0.022,-0.68056 0.2262,-1.35935 0.6097,-2.02998 2.5162,1.36006 4.9198,2.15787 7.3718,3.19742 -2.3135,-1.2375 -4.2312,-1.68127 -7.0081,-3.84534 -17.3002,-12.84465 -27.954,-33.11125 -27.9805,-54.65846 0.035,-22.02715 11.1538,-42.6802 29.1029,-55.44829 9.0817,5.3773 23.8103,8.57759 39.5233,8.58781 15.7335,-0.007 30.483,-3.21157 39.5684,-8.59828 z"
         id="path4393"
         inkscape:connector-curvature="0"
         sodipodi:nodetypes="ccccccccccccccccccccccccccccccccccccc" />
      <path
         inkscape:connector-curvature="0"
         style="color:#000000;clip-rule:nonzero;display:inline;overflow:visible;visibility:visible;opacity:0.54000005;isolation:auto;mix-blend-mode:normal;color-interpolation:sRGB;color-interpolation-filters:linearRGB;solid-color:#000000;solid-opacity:1;fill:#fdfdfd;fill-opacity:1;fill-rule:evenodd;stroke:none;stroke-width:1;stroke-linecap:round;stroke-linejoin:miter;stroke-miterlimit:4;stroke-dasharray:none;stroke-dashoffset:0;stroke-opacity:1;filter:url(#filter4452);color-rendering:auto;image-rendering:auto;shape-rendering:auto;text-rendering:auto;enable-background:accumulate"
         d="m -940.30469,945.82227 c -8.2104,0.42791 -14.82792,5.40903 -15.8164,11.77343 9.1594,0.79415 17.5842,0.61704 24.8789,-1.05468 -2.27564,-3.65539 -5.35351,-7.22092 -9.0625,-10.71875 z m 2.89453,0.0254 c 3.30265,3.28347 6.09832,6.66174 8.20313,10.16406 2.01948,-0.55833 3.94039,-1.24711 5.76562,-2.0625 -2.39275,-4.40104 -7.67453,-7.59641 -13.96875,-8.10156 z m 14.76172,9.95898 c -1.76541,0.79181 -3.61042,1.46538 -5.53515,2.02148 1.24204,2.36068 2.16895,4.77731 2.73437,7.25782 2.12433,-1.02259 3.38477,-2.77975 3.38477,-5.8418 0,-1.19051 -0.21575,-2.3381 -0.58399,-3.4375 z m -7.53515,2.54883 c -7.70125,1.87076 -16.53353,2.06495 -26.05274,1.23828 0.26014,7.06433 8.09563,6.90234 17.38086,6.90234 4.50279,0 8.5177,0.0335 11.49805,-0.72851 -0.55101,-2.51548 -1.50556,-4.9849 -2.82617,-7.41211 z"
         id="path4425"
         transform="matrix(1.7736814,0,0,1.7736814,273.47068,-988.20958)" />
      <path
         style="fill:#333333;fill-rule:evenodd;stroke:none;stroke-width:1.29535592px;stroke-linecap:butt;stroke-linejoin:miter;stroke-opacity:1"
         d="m -1498.9682,695.33252 c -4.2091,3.91182 -10.4875,5.97223 -16.6909,8.09969 0,0 10.6824,-2.32157 12.0234,-2.66409 6.4009,-2.00219 4.6675,-5.4356 4.6675,-5.4356 z"
         id="path6008"
         inkscape:connector-curvature="0"
         sodipodi:nodetypes="cccc" />
      <path
         inkscape:connector-curvature="0"
         id="path6012"
         style="fill:none;fill-rule:evenodd;stroke:#cccccc;stroke-width:1.29535592px;stroke-linecap:butt;stroke-linejoin:miter;stroke-opacity:1"
         d="m -1508.3159,695.9357 c -17.2663,-26.14227 24.0475,-135.35263 2.133,-154.59399 m 0.509,151.84613 c 17.2663,-26.14227 -10.7662,-153.67173 11.1483,-172.91309" />
    </g>
  </g>
</svg>
